<?xml version="1.0" encoding="UTF-8" standalone="no"?>
<svg
   width="170"
   height="38"
   viewBox="0 0 170 38"
   fill="none"
   version="1.1"
   id="svg4404"
   sodipodi:docname="logo.svg"
   xml:space="preserve"
   inkscape:version="1.2.1 (9c6d41e4, 2022-07-14)"
   xmlns:inkscape="http://www.inkscape.org/namespaces/inkscape"
   xmlns:sodipodi="http://sodipodi.sourceforge.net/DTD/sodipodi-0.dtd"
   xmlns="http://www.w3.org/2000/svg"
   xmlns:svg="http://www.w3.org/2000/svg"><defs
     id="defs4408" /><sodipodi:namedview
     id="namedview4406"
     pagecolor="#ffffff"
     bordercolor="#000000"
     borderopacity="0.25"
     inkscape:showpageshadow="2"
     inkscape:pageopacity="0.0"
     inkscape:pagecheckerboard="0"
     inkscape:deskcolor="#d1d1d1"
     showgrid="false"
     inkscape:lockguides="false"
     inkscape:zoom="5.27"
     inkscape:cx="85.009488"
     inkscape:cy="18.975332"
     inkscape:window-width="1335"
     inkscape:window-height="728"
     inkscape:window-x="60"
     inkscape:window-y="25"
     inkscape:window-maximized="0"
     inkscape:current-layer="layer2" /><g
     inkscape:groupmode="layer"
     id="layer1"
     inkscape:label="Layer 1"><text
       xml:space="preserve"
       style="font-style:normal;font-variant:normal;font-weight:normal;font-stretch:normal;font-size:22px;font-family:Arial;-inkscape-font-specification:'Arial, Normal';font-variant-ligatures:normal;font-variant-caps:normal;font-variant-numeric:normal;font-variant-east-asian:normal;fill:#000300;fill-opacity:1;stroke-width:1.43682"
       x="36.366051"
       y="26.838385"
       id="text5409"
       transform="scale(0.92122647,1.0855094)"><tspan
         sodipodi:role="line"
         id="tspan5407"
         x="36.366051"
         y="26.838385"
         style="font-style:normal;font-variant:normal;font-weight:normal;font-stretch:normal;font-size:22px;font-family:Arial;-inkscape-font-specification:'Arial, Normal';font-variant-ligatures:normal;font-variant-caps:normal;font-variant-numeric:normal;font-variant-east-asian:normal;fill:#000300;fill-opacity:1;stroke-width:1.43682">know invasives</tspan></text></g><g
     inkscape:groupmode="layer"
     id="layer2"
     inkscape:label="Layer 2"><g
       transform="matrix(0,-0.0264038,-0.04826076,0,97.084923,101.66941)"
       fill="#000000"
       stroke="none"
       id="g11145"
       style="stroke-width:0.75;stroke-dasharray:none"><path
         id="path11137"
         style="fill:#235d23;fill-opacity:0.73057;stroke-width:0.732547;stroke-dasharray:none"
         d="m 3810.7632,1592.6047 c -31.3305,19.9134 -108.2229,29.0447 -167.915,19.3043 -54.6092,-8.4663 -54.5203,-8.4304 -80.037,15.9453 -31.489,29.6363 -71.3111,43.6872 -94.4615,31.4859 -8.1714,-4.3062 -19.9175,-29.3856 -25.9639,-55.6871 -10.0771,-43.8341 -13.4655,-47.6916 -33.583,-41.482 -44.7664,13.5335 -198.4397,27.0925 -243.8836,22.0563 l -46.8238,-5.7873 48.5991,34.8449 c 48.6854,34.7639 74.2258,62.1307 96.5327,101.9041 l 11.9833,21.085 38.0213,-22.0158 c 25.357,-14.6557 55.5944,-23.9977 83.8835,-25.901 53.0385,-3.5684 60.3473,7.3375 41.7938,62.0004 -11.3442,33.9461 -11.336,33.9245 23.0791,53.4612 43.7647,23.7641 83.8425,68.0122 91.3546,100.69 5.1304,22.3167 3.1423,24.1022 -41.6458,27.1151 -27.1105,1.824 -64.9684,-1.3662 -86.4726,-6.3943 -35.7485,-9.7351 -38.0943,-9.5377 -43.9389,11.8982 -10.5349,32.2707 -42.3848,70.8071 -60.0648,71.9966 -8.2482,0.5549 -27.7085,-6.2118 -44.2349,-15.6215 -16.5236,-9.4099 -38.5551,-27.3576 -47.5635,-40.5107 -18.6461,-23.8353 -19.8863,-23.6903 -56.2183,-9.9152 -20.9298,7.8831 -56.4625,15.0876 -80.037,16.6737 -38.8972,2.617 -41.4044,1.1413 -47.2677,-24.3631 -8.794,-38.2542 3.3237,-68.9915 37.7994,-101.2565 29.6783,-27.0864 29.391,-27.9069 6.2136,-50.6283 -13.7235,-12.8354 -27.2134,-34.6101 -30.3283,-48.1596 -5.1303,-22.3161 -3.1499,-24.0595 40.4623,-26.9937 28.2862,-1.9031 61.7618,3.1535 92.982,14.0027 40.3873,14.2766 46.4656,14.7074 43.7171,2.752 -5.942,-20.6408 -83.6704,-82.7419 -130.2635,-113.6 -22.7045,-15.4691 -92.3824,-43.013 -146.3894,-64.4691 l -76.1905,-26.1033 -32.9912,9.9152 c -42.5679,23.0978 -72.9109,57.5627 -99.2696,109.5125 -21.9308,45.1806 -19.4289,55.5509 7.4711,42.4128 26.0899,-11.4677 116.543,-18.4181 141.1374,-10.3604 23.4128,8.137 18.7367,40.0513 -11.0217,71.9966 -21.1674,22.4673 -21.4299,26.5177 -3.2548,43.1008 33.0772,29.3386 52.2288,81.4976 44.2349,114.4094 -8.807,34.5826 -26.5607,34.9416 -115.3213,2.8734 l -54.9608,-20.5993 -14.4984,20.397 c -7.0448,10.9955 -30.5556,28.81 -52.2977,38.3658 -32.2464,15.9283 -39.2285,16.3233 -51.0402,6.5966 -18.8034,-14.1101 -49.8236,-60.5169 -54.2211,-79.6454 -2.7482,-11.9546 -9.0217,-13.1731 -36.3939,-7.2847 -18.3098,3.66 -56.4872,4.6174 -84.6972,1.6593 -44.2653,-5.1155 -49.6058,-7.9326 -47.1937,-23.4728 7.4445,-35.3028 48.2279,-81.7889 87.3602,-98.9902 38.9519,-17.9984 39.6695,-19.6836 28.7009,-56.9821 -6.1255,-21.4405 -7.6826,-44.058 -3.2548,-50.8306 12.6547,-17.8454 68.5676,-8.6457 121.6829,19.3448 l 45.0486,23.756 19.9722,-43.4651 c 19.7538,-44.2216 58.8425,-107.648 98.6039,-127.3194 20.1967,-11.0709 -42.4246,-35.577 -80.4545,-50.0143 -45.5375,-22.9827 -33.2027,-10.9832 -81.5428,-39.0202 -51.6383,-27.6205 -28.5188,-57.5964 -34.497,-71.6372 52.8627,48.6301 128.3044,77.7065 181.0343,105.2275 3.9105,2.1409 7.3885,3.3334 11.0217,5.0183 32.9871,12.7794 66.6853,26.1848 96.2367,37.8397 138.0532,53.8407 221.3267,57.8137 337.7533,54.0278 58.3065,-1.4947 107.7216,4.1945 132.1868,-3.9256 l 41.35,-12.4649 -52.2978,-19.9518 c -53.638,-19.8626 -82.265,-39.7928 -87.2122,-61.3124 -3.2981,-14.346 76.383,-37.452 112.2145,-32.5786 17.2351,2.0779 24.4043,-3.2922 29.0708,-24.6464 8.9868,-33.7881 70.7691,-88.195 112.7323,-98.3022 27.1871,-6.6854 31.2136,-4.4776 49.4129,22.6229 10.92,16.2616 22.4793,40.6403 25.5941,54.1896 4.9466,21.5171 9.1883,24.4429 32.0296,19.6686 14.7737,-3.4219 49.5724,-3.3923 77.9658,0.3642 32.5153,3.4778 49.886,9.0449 53.7772,20.1137 3.8912,11.0692 -5.8327,27.6888 -27.4434,53.4207 l -31.6597,38.5682 33.8049,17.0784 c 18.7004,8.4542 44.23,26.2073 56.5881,38.3254 21.4488,20.4094 22.241,23.6353 5.3999,33.6712 z m -35.2104,-22.7847 c -1.2826,-5.5787 -29.2292,-23.0166 -62.7277,-38.5682 l -61.6181,-28.3292 30.4762,-19.0615 c 16.8439,-10.0355 37.6374,-28.4099 46.6759,-41.1582 20.6977,-29.7174 0.06,-36.349 -84.2534,-28.2482 l -64.2811,6.6371 -6.5835,-44.0316 c -9.9434,-64.0786 -24.5983,-71.172 -70.1248,-34.9259 -20.0929,16.7295 -41.2013,44.8823 -45.4184,62.9717 -9.1737,32.9882 -10.3715,33.0231 -68.1276,36.9089 -33.0013,2.2203 -63.1101,6.6123 -67.0921,10.1176 -13.7536,13.0656 75.9939,49.1503 125.6034,51.4781 27.8406,1.3643 50.124,4.8374 51.0402,8.8225 0.9161,3.9848 -6.3099,19.0623 -15.9778,34.2783 -16.7154,26.2147 -14.116,79.3121 3.7726,89.4393 8.1715,4.3064 49.5432,-13.7647 47.7115,-21.7325 -0.5497,-2.391 7.497,-13.5187 15.9038,-23.7965 l 18.123,-20.6399 49.7827,13.679 c 70.3261,19.5493 162.7949,10.8667 157.1152,-13.8408 z m -260.3052,325.057 c -4.9472,-21.5197 -61.6404,-70.3389 -98.3079,-84.0567 l -35.4323,-13.679 16.4216,-37.5968 c 21.5621,-46.7722 21.2374,-48.3953 -12.945,-46.0956 -33.0035,2.2205 -88.9838,40.022 -94.4614,63.0526 -5.4781,23.0297 -34.3671,22.5169 -56.3662,-0.2833 -30.091,-31.968 -143.0062,-60.0259 -137.1429,-34.5211 1.0994,4.7822 17.2601,22.3518 35.4323,38.9324 l 32.9912,29.3409 -34.1747,23.3918 c -33.1376,22.4634 -57.9393,65.351 -52.0759,90.8557 3.8472,16.7349 48.1993,12.2476 91.9464,-10.9269 40.5732,-21.3446 68.4396,-20.1349 74.1193,4.5731 4.2143,18.3317 49.8407,60.6048 63.9853,59.6532 4.7147,-0.3172 14.6647,-9.0247 21.8955,-19.2234 7.045,-10.9953 14.7075,-29.3419 15.312,-42.3319 4.8247,-31.0798 16.0943,-34.1785 66.2784,-18.9401 51.7279,16.7513 106.5547,15.3871 102.5243,-2.1449 z m -620.7677,-32.3762 c -5.8645,-18.3389 -20.2122,-40.6155 -40.9801,-60.6649 l -38.613,-37.7992 24.5584,-17.8879 c 13.3049,-9.7981 28.6385,-26.2621 33.5091,-36.3018 8.935,-18.4068 7.7354,-19.0413 -35.8761,-16.1071 -29.468,1.9825 -59.784,11.2452 -85.1411,25.9009 -38.0364,21.9804 -61.1764,25.1711 -65.3907,6.8395 -4.764,-20.7227 -57.1152,-60.956 -91.5025,-69.9731 l -38.3912,-10.4008 19.1586,46.5812 19.0107,46.3789 -39.0569,12.4244 c -35.5198,12.1019 -100.0133,64.9501 -96.5326,80.0906 2.5653,11.1582 62.5223,11.1444 104.2996,0.2429 21.4796,-5.4919 43.5165,-8.5353 47.7855,-5.5849 5.4477,2.8708 13.3644,21.6913 19.3065,42.3318 17.7485,66.791 39.9599,70.1963 85.4369,12.91 16.0078,-18.8796 31.4523,-35.2545 34.9885,-35.4924 4.5317,-1.1143 32.5867,11.5382 63.9112,28.0459 29.9628,15.7896 61.4266,27.4836 69.3112,25.3344 13.4118,-4.1383 16.0725,-18.5295 10.208,-36.8684 z M 2104.3918,1369.735 c -1.5497,1.1365 -3.0035,2.164 -4.5122,3.2781 -1.1945,-0.6373 -2.4413,-1.2995 -3.6246,-1.9425 1.1138,-0.3677 2.2164,-0.8042 3.3287,-1.1737 1.5968,-0.1074 3.2095,-0.061 4.8081,-0.1619 z"
         sodipodi:nodetypes="ccccscccccccsccccccscccscccsscccccccccccccccccsccccccccccccccccccccsccccsccscccccccccccccccsccsccsccccsccccccscccsccscccssccccscscccccscccccccsccccc" /></g><path
       style="fill:#0e3c0e;fill-opacity:0.73057002;stroke-width:0.0331126"
       d="M 25.706989,12.665563 C 25.25776,12.073675 24.784002,11.01692 24.654194,10.317218 24.4368,9.1454076 24.34969,9.0622295 23.550149,9.2630073 23.072732,9.3828944 21.736382,9.5638884 20.580481,9.6652166 18.692427,9.8307265 18.490518,9.7897795 18.593726,9.2623056 18.659523,8.9260308 19.263899,8.4830765 20.00823,8.2255977 20.723022,7.9783377 21.358107,7.7257781 21.419531,7.664354 21.480955,7.6029301 21.221166,6.8517652 20.842222,5.9950993 20.14208,4.4123134 20.18494,2.7356636 20.937431,2.270599 c 0.196172,-0.1212414 1.097389,0.5560419 2.002702,1.5050742 1.645535,1.725001 1.646233,1.7253225 2.349634,1.0831893 1.011934,-0.9237918 2.816481,-1.7766312 3.224999,-1.5241534 0.222838,0.1377219 0.269559,0.9058953 0.128839,2.1183482 l -0.220782,1.9022702 2.197863,0.1764235 c 1.208825,0.097033 2.292403,0.2709629 2.407952,0.3865116 0.429721,0.4297205 -0.943504,1.3175271 -3.127504,2.0219695 l -2.252127,0.7264169 -0.303841,1.537536 c -0.167113,0.845645 -0.420291,1.537537 -0.562619,1.537537 -0.142328,0 -0.626329,-0.484272 -1.075558,-1.076159 z"
       id="path1451" /><path
       style="fill:#143614;fill-opacity:0.73057;stroke-width:0.0331126"
       d="M 4.0897476,19.858413 C 3.985421,19.586542 4.2891051,18.854042 4.764601,18.230635 5.8253242,16.839955 5.8596146,16.169383 4.884106,15.893618 3.7810683,15.581802 1.986755,14.620545 1.986755,14.341437 c 0,-0.223815 1.5520825,-0.716021 3.1456953,-0.997584 C 5.829196,13.220751 5.8657854,12.861097 5.4372646,10.347682 5.2754454,9.3985599 5.3358593,9.1059603 5.6936467,9.1059603 c 0.6970775,0 3.4139301,1.8063017 4.0214589,2.6736707 0.5024754,0.717384 0.6159174,0.736065 2.2205524,0.365671 2.130938,-0.491879 2.302753,-0.488251 2.302753,0.04863 0,0.636875 -1.308974,1.767862 -2.736307,2.36424 -0.680462,0.284315 -1.237203,0.646258 -1.237203,0.804318 0,0.158059 0.499688,0.668512 1.110418,1.134338 1.073252,0.818609 2.154518,2.6996 1.771822,3.082296 -0.102867,0.102868 -0.905421,-0.216794 -1.783452,-0.710359 L 9.7672699,17.971378 8.1121116,18.968293 c -2.0252782,1.219841 -3.7494267,1.601383 -4.022364,0.89012 z"
       id="path1453" /><path
       style="fill:#143614;fill-opacity:0.73057;stroke-width:0.0331126"
       d="m 8.6951894,35.182119 c 0.094625,-0.774006 0.2784702,-1.66679 0.4085454,-1.983964 0.2697198,-0.657682 0.1530215,-0.714504 -2.5639997,-1.248434 -1.0471854,-0.205786 -1.9039735,-0.51021 -1.9039735,-0.676498 0,-0.166288 0.8304812,-0.722281 1.8455138,-1.23554 l 1.8455137,-0.933199 -1.348825,-1.632265 c -0.7418538,-0.897746 -1.348825,-1.746751 -1.348825,-1.886679 0,-0.566923 1.8992265,-0.1941 4.0415682,0.793369 l 2.2731947,1.047783 1.27512,-0.716657 c 0.701316,-0.394162 1.44109,-0.716658 1.643943,-0.716658 0.730543,0 0.346039,1.289116 -0.790117,2.649007 -0.637418,0.762939 -1.158941,1.515097 -1.158941,1.671463 0,0.156367 0.633278,0.569048 1.407285,0.91707 1.35921,0.611152 3.171028,2.215053 2.856967,2.529114 -0.08435,0.08435 -1.018448,-0.07253 -2.075766,-0.348637 -1.80175,-0.470502 -1.950866,-0.46446 -2.376036,0.09628 -0.249502,0.329057 -0.458379,0.696 -0.464171,0.815427 -0.01372,0.282968 -3.0081254,2.266303 -3.4216221,2.266303 -0.1796722,0 -0.2427589,-0.610707 -0.1453745,-1.407285 z"
       id="path1455" /><path
       style="fill:#0e3c0e;fill-opacity:0.73057;stroke-width:0.0071736"
       d="m 26.272138,13.26058 c -0.210708,-0.222822 -0.48137,-0.547952 -0.60147,-0.72251 -0.350927,-0.510055 -0.826824,-1.590457 -0.956821,-2.172216 -0.19298,-0.8636187 -0.311928,-1.1421128 -0.508928,-1.1915567 -0.09535,-0.02393 -0.536519,0.023704 -0.980385,0.1058528 -1.39618,0.2584001 -3.86787,0.4941576 -4.310394,0.4111397 -0.301764,-0.056611 -0.364699,-0.1903673 -0.235295,-0.5000756 0.131133,-0.3138449 0.701109,-0.6812629 1.55071,-0.9996192 1.14755,-0.4300016 1.219512,-0.4673796 1.219512,-0.6334309 0,-0.083342 -0.174347,-0.5913382 -0.387439,-1.1288795 -0.490263,-1.2367298 -0.6003,-1.6137959 -0.658559,-2.256712 -0.08033,-0.8864475 0.209426,-1.7718239 0.598229,-1.8279607 0.254963,-0.036812 0.768803,0.3673923 1.990094,1.5654783 0.631277,0.6192822 1.227591,1.1791889 1.325144,1.2442371 0.296001,0.1973747 0.515563,0.1466233 0.938828,-0.2170076 0.916218,-0.7871339 2.440555,-1.6015952 2.997527,-1.6015952 0.114806,0 0.249895,0.049591 0.300199,0.1102029 0.15764,0.1899457 0.159126,1.0967995 0.004,2.4364255 -0.08224,0.7101866 -0.149552,1.3413601 -0.149576,1.4026079 -3.7e-5,0.092628 0.202069,0.1265675 1.201534,0.2017717 1.518099,0.1142285 2.799198,0.2714379 3.150854,0.3866554 0.379754,0.124424 0.386066,0.2906286 0.02411,0.6349461 -0.450437,0.4284895 -1.727256,1.0071739 -3.490371,1.581917 -0.862217,0.281068 -1.594969,0.535397 -1.628338,0.565179 -0.03337,0.02978 -0.16662,0.56851 -0.296114,1.197178 -0.24128,1.171378 -0.461744,1.813102 -0.62289,1.813102 -0.05007,0 -0.263443,-0.182308 -0.474153,-0.40513 z"
       id="path2113" /><path
       style="fill:#0e3c0e;fill-opacity:0.73057;stroke-width:0.0071736"
       d="M 4.3963303,20.091659 C 4.2626275,20.031283 4.1477756,19.916138 4.1230701,19.817704 4.0608257,19.569702 4.324242,18.942838 4.7337585,18.364419 5.3508895,17.492756 5.5476603,17.109965 5.5801802,16.717818 5.62187,16.215093 5.4947245,16.085002 4.6628407,15.779232 3.7680445,15.450337 2.5797535,14.852463 2.2439859,14.562215 L 1.9762375,14.330765 2.2614329,14.185314 C 2.6451103,13.989638 3.5922515,13.706976 4.5691797,13.496597 5.8770239,13.214956 6.1379822,12.965212 5.8767098,12.245252 5.7951138,12.020406 5.6438288,11.314086 5.5405209,10.675651 5.384374,9.7106742 5.3675404,9.4822642 5.4407308,9.3216287 5.519577,9.1485802 5.5566052,9.1328159 5.7952331,9.170704 c 0.8135005,0.1291633 3.1703648,1.735576 3.8720517,2.639149 0.185741,0.239181 0.4189042,0.476549 0.5181402,0.527485 0.242343,0.12439 0.671954,0.0795 2.009697,-0.209996 0.611549,-0.132342 1.246686,-0.262434 1.411416,-0.289093 0.607162,-0.09826 0.768181,0.239705 0.394032,0.827046 -0.394389,0.619115 -1.142692,1.170579 -2.522808,1.859188 -0.493185,0.246075 -0.969333,0.514239 -1.058106,0.595919 -0.312131,0.287191 -0.258311,0.366499 1.062558,1.565787 0.720777,0.654432 1.268965,1.386031 1.54949,2.067916 0.434829,1.056954 0.119324,1.033993 -2.030185,-0.147745 -0.636754,-0.350069 -1.1904752,-0.636489 -1.2304925,-0.636489 -0.040017,0 -0.5524662,0.28621 -1.138777,0.636023 -1.3271854,0.791843 -1.761489,1.0116 -2.5461813,1.288361 -0.7694654,0.271391 -1.3704252,0.341598 -1.6897379,0.197404 z"
       id="path2115" /><path
       style="fill:#0e3c0e;fill-opacity:0.73057;stroke-width:0.0071736"
       d="M 8.7500179,36.365488 C 8.7115396,36.264283 8.6800637,36.030244 8.6800714,35.845402 8.6800913,35.371803 8.9331788,33.876411 9.1104482,33.302479 9.3574607,32.502746 9.3256729,32.483215 6.9859103,31.997137 5.8123243,31.753328 5.1457051,31.566142 4.808691,31.385778 4.6766833,31.315129 4.6676246,31.285637 4.747879,31.18779 c 0.1839886,-0.224321 1.1754968,-0.81994 2.3663305,-1.421505 0.6639423,-0.335398 1.2071678,-0.639211 1.2071678,-0.67514 0,-0.03593 -0.3954447,-0.544147 -0.8787661,-1.129375 -0.9121156,-1.104433 -1.5475866,-1.939693 -1.703239,-2.238731 -0.077795,-0.149459 -0.07222,-0.186949 0.040005,-0.26901 0.4351678,-0.318202 2.0814765,0.14575 4.5506088,1.282423 0.769368,0.354182 1.45257,0.660193 1.518226,0.680024 0.0673,0.02033 0.552333,-0.200774 1.111909,-0.506866 0.545893,-0.298609 1.197543,-0.626042 1.448109,-0.727631 0.424155,-0.171966 0.467448,-0.176927 0.62769,-0.07193 0.427249,0.279945 0.02221,1.206073 -1.224266,2.799335 -0.681866,0.871567 -0.899172,1.208461 -0.899172,1.394008 0,0.190693 0.309139,0.409239 1.306108,0.923349 0.461904,0.238191 1.059106,0.588831 1.327117,0.7792 0.694534,0.49333 1.5992,1.398429 1.5992,1.599966 0,0.155832 -0.01669,0.160336 -0.411417,0.111018 -0.22628,-0.02827 -0.928396,-0.181007 -1.560258,-0.339412 -0.715603,-0.179397 -1.334068,-0.291628 -1.640015,-0.297608 -0.489112,-0.0096 -0.49219,-0.0084 -0.733805,0.277343 -0.133448,0.15782 -0.342725,0.47385 -0.465062,0.70229 -0.244684,0.4569 -0.541498,0.719077 -1.637437,1.446356 -0.673774,0.447125 -1.7105147,1.040585 -1.8213571,1.042598 -0.030568,5.73e-4 -0.08706,-0.08179 -0.125538,-0.183001 z"
       id="path2117" /></g></svg>
